<svg xmlns="http://www.w3.org/2000/svg" width="575" height="110" viewBox="0 0 575 110"><g fill="none"><path d="M423.867 9.93c-5.608 0-10.896 1.816-15.87 5.447V48.42c5.05 3.792 10.262 5.685 15.635 5.685 10.893 0 16.343-7.343 16.343-22.028 0-14.762-5.37-22.147-16.108-22.147zm-16.7-1.54c3-2.606 6.2-4.58 9.596-5.922 3.392-1.342 6.87-2.01 10.42-2.01 3.792 0 7.227.707 10.304 2.13 3.08 1.42 5.685 3.473 7.815 6.157 2.135 2.685 3.772 5.94 4.918 9.772 1.142 3.83 1.717 8.152 1.717 12.968 0 4.896-.613 9.32-1.836 13.266-1.22 3.95-2.94 7.31-5.15 10.07-2.21 2.77-4.89 4.92-8.05 6.46-3.16 1.54-6.67 2.31-10.54 2.31-7.1 0-13.22-2.33-18.36-6.99v27.71c0 1.58-.79 2.37-2.37 2.37h-6.99c-1.57 0-2.36-.79-2.36-2.37V4.6c0-1.578.79-2.37 2.37-2.37h5.21c1.58 0 2.49.792 2.73 2.37l.59 3.79zm74.38 46.546c2.603 0 5.326-.512 8.17-1.54 2.84-1.026 5.57-2.526 8.172-4.5v-12.08c-1.98-.474-4.05-.85-6.22-1.126-2.18-.276-4.29-.417-6.34-.417-8.93 0-13.38 3.435-13.38 10.305 0 3.003.82 5.313 2.48 6.93 1.66 1.618 4.02 2.428 7.11 2.428zm-13.86-42.402l-.886.298c-.35.12-.69.18-1 .18-1.02 0-1.54-.713-1.54-2.136V7.68c0-1.104.16-1.875.48-2.31.32-.434.95-.848 1.9-1.244 2.53-1.104 5.65-1.994 9.36-2.664 3.71-.67 7.42-1.005 11.14-1.005 7.5 0 13.03 1.538 16.58 4.615 3.56 3.08 5.33 7.858 5.33 14.332V59.91c0 1.58-.79 2.368-2.37 2.368h-5.09c-1.5 0-2.37-.75-2.61-2.25l-.59-3.908c-2.84 2.447-5.98 4.343-9.41 5.685-3.43 1.342-6.85 2.012-10.24 2.012-5.686 0-10.19-1.598-13.5-4.795-3.32-3.2-4.98-7.48-4.98-12.852 0-5.762 2.058-10.364 6.16-13.795 4.11-3.435 9.637-5.152 16.58-5.152 4.426 0 9.4.67 14.927 2.012V21.42c0-4.266-.946-7.267-2.843-9-1.894-1.74-5.21-2.61-9.944-2.61-5.53 0-11.33.91-17.41 2.724zm79.823 60.283c-2.13 5.45-4.598 9.358-7.402 11.727-2.8 2.37-6.452 3.554-10.953 3.554-2.53 0-4.78-.28-6.75-.83-.872-.235-1.503-.614-1.896-1.126-.4-.515-.6-1.32-.6-2.428v-3.078c0-1.5.59-2.25 1.77-2.25.39 0 .98.078 1.77.235.79.16 1.85.24 3.19.24 3 0 5.33-.71 6.99-2.13 1.65-1.42 3.15-4.03 4.5-7.82l2.25-6.04L517.54 6.5c-.552-1.34-.826-2.286-.826-2.84 0-.946.55-1.423 1.657-1.423h7.11c1.27 0 2.13.2 2.61.593.47.395.95 1.265 1.42 2.607l16.58 45.953 15.99-45.96c.48-1.342.95-2.212 1.42-2.608.48-.392 1.35-.592 2.61-.592h6.63c1.11 0 1.66.477 1.66 1.423 0 .554-.28 1.5-.83 2.842l-26.06 66.322" fill="#333E48"/><path d="M226.34 86.026C205.133 101.676 174.386 110 147.91 110c-37.107 0-70.523-13.717-95.81-36.55-1.985-1.792-.214-4.24 2.173-2.852 27.282 15.875 61.02 25.436 95.866 25.436 23.5 0 49.34-4.878 73.12-14.964 3.58-1.52 6.59 2.363 3.08 4.956" fill="#F90"/><path d="M235.167 75.95c-2.714-3.473-17.93-1.646-24.768-.827-2.08.25-2.4-1.56-.53-2.872 12.14-8.52 32.03-6.06 34.34-3.21 2.33 2.88-.61 22.83-11.99 32.35-1.75 1.47-3.42.69-2.64-1.25 2.56-6.39 8.29-20.7 5.57-24.18" fill="#F90"/><path d="M210.994 11.455V3.17c.007-1.263.956-2.102 2.1-2.098l37.136-.004c1.187 0 2.14.864 2.14 2.09v7.106c-.01 1.193-1.014 2.747-2.794 5.216L230.34 42.944c7.14-.167 14.693.904 21.18 4.55 1.463.822 1.855 2.04 1.97 3.233v8.842c0 1.21-1.334 2.62-2.736 1.89-11.428-5.99-26.596-6.64-39.236.07-1.29.68-2.642-.71-2.642-1.93v-8.4c0-1.35.026-3.65 1.382-5.7l22.287-31.98-19.405-.01c-1.187 0-2.14-.84-2.146-2.08M75.534 63.2H64.24c-1.075-.07-1.933-.877-2.02-1.91l.008-57.982c0-1.16.974-2.08 2.18-2.08h10.52c1.102.055 1.985.89 2.054 1.95v7.567h.212C79.934 3.42 85.102 0 92.062 0c7.064 0 11.494 3.417 14.657 10.738C109.46 3.418 115.68 0 122.32 0c4.746 0 9.913 1.952 13.077 6.345 3.584 4.882 2.85 11.957 2.85 18.18l-.01 36.592c0 1.157-.975 2.086-2.18 2.086h-11.28c-1.137-.072-2.028-.97-2.028-2.08l-.01-30.742c0-2.43.21-8.53-.32-10.85-.85-3.9-3.38-5-6.64-5-2.74 0-5.59 1.83-6.75 4.76-1.16 2.93-1.06 7.81-1.06 11.11v30.73c0 1.16-.98 2.09-2.18 2.09H94.52c-1.135-.07-2.03-.97-2.03-2.08l-.01-30.74c0-6.46 1.054-15.98-6.96-15.98-8.12 0-7.803 9.27-7.803 15.98l-.007 30.73c0 1.16-.976 2.09-2.18 2.09m208.91-51.37c-8.33 0-8.858 11.35-8.858 18.43s-.105 22.21 8.754 22.21c8.754 0 9.173-12.21 9.173-19.65 0-4.88-.21-10.74-1.69-15.38-1.27-4.03-3.8-5.613-7.38-5.613zM284.34 0c16.768 0 25.836 14.4 25.836 32.7 0 17.69-10.016 31.726-25.836 31.726-16.452 0-25.417-14.4-25.417-32.335 0-18.05 9.07-32.09 25.417-32.09zm47.582 63.203h-11.257c-1.13-.072-2.026-.97-2.026-2.08l-.02-58.006c.09-1.062 1.03-1.893 2.17-1.893l10.48-.003c.98.06 1.8.73 2 1.63v8.87h.21C336.65 3.78 341.08 0 348.88 0c5.06 0 10.02 1.83 13.186 6.834 2.95 4.636 2.95 12.443 2.95 18.057v36.49c-.127 1.03-1.05 1.83-2.166 1.83h-11.32c-1.046-.06-1.89-.83-2.01-1.82V29.9c0-6.345.74-15.62-7.066-15.62-2.743 0-5.274 1.83-6.54 4.636-1.58 3.54-1.794 7.078-1.794 10.986v31.22c-.018 1.158-.994 2.087-2.198 2.087m-139.142.41c-.746.67-1.825.71-2.67.26-3.75-3.12-4.422-4.56-6.475-7.53-6.2 6.31-10.592 8.21-18.626 8.21-9.51 0-16.91-5.87-16.91-17.61 0-9.18 4.96-15.41 12.04-18.47 6.13-2.69 14.69-3.18 21.24-3.92V23.1c0-2.69.21-5.864-1.38-8.19-1.38-2.08-4.02-2.934-6.34-2.934-4.31 0-8.14 2.206-9.08 6.783-.2 1.01-.94 2.02-1.97 2.08l-10.95-1.19c-.93-.21-1.95-.95-1.69-2.37C152.51 4.01 164.51 0 175.26 0c5.498 0 12.683 1.465 17.016 5.625 5.498 5.135 4.968 11.984 4.968 19.445v17.598c0 5.297 2.2 7.618 4.264 10.47.722 1.03.883 2.25-.037 3.003-2.3 1.94-6.4 5.5-8.66 7.51l-.03-.02zm-11.387-27.54v-2.45c-8.174 0-16.805 1.74-16.805 11.37 0 4.89 2.536 8.19 6.87 8.19 3.168 0 6.023-1.96 7.818-5.14 2.22-3.92 2.117-7.58 2.117-11.99zM44.68 63.62c-.746.67-1.827.715-2.668.262-3.755-3.12-4.427-4.56-6.476-7.53-6.203 6.318-10.595 8.214-18.626 8.214C7.398 64.566 0 58.696 0 46.958c0-9.172 4.966-15.408 12.048-18.465 6.128-2.69 14.69-3.18 21.24-3.915V23.11c0-2.69.214-5.867-1.37-8.19-1.376-2.08-4.02-2.937-6.342-2.937-4.31 0-8.142 2.207-9.08 6.784-.196 1.018-.94 2.026-1.964 2.08L3.582 19.66c-.925-.21-1.953-.95-1.686-2.365C4.412 4.012 16.408 0 27.16 0c5.496 0 12.683 1.465 17.016 5.625 5.495 5.135 4.968 11.984 4.968 19.445v17.598c0 5.297 2.198 7.618 4.262 10.47.72 1.03.885 2.25-.035 3.003-2.3 1.94-6.41 5.5-8.66 7.51l-.02-.02zM33.29 36.073V33.63c-8.17 0-16.804 1.747-16.804 11.37 0 4.89 2.538 8.194 6.87 8.194 3.17 0 6.025-1.958 7.82-5.136 2.22-3.915 2.113-7.58 2.113-11.984z" fill="#333E48"/></g></svg>