<svg xmlns="http://www.w3.org/2000/svg" xmlns:xlink="http://www.w3.org/1999/xlink" width="100px" height="25px" viewBox="0 0 100 25" version="1.1"><title>PayPal-on</title><desc>Created with Sketch.</desc><defs/><g id="Page-1" stroke="none" stroke-width="1" fill="none" fill-rule="evenodd"><g id="PayPal-on"><g id="Group"><path d="M37.267,5.443 L31.752,5.443 C31.374,5.443 31.052,5.717 30.994,6.09 L28.764,20.232 C28.719,20.512 28.934,20.762 29.219,20.762 L31.849,20.762 C32.219,20.762 32.549,20.489 32.599,20.115 L33.199,16.301 C33.259,15.931 33.579,15.661 33.949,15.661 L35.699,15.661 C39.329,15.661 41.429,13.901 41.969,10.421 C42.209,8.901 41.979,7.701 41.259,6.861 C40.479,5.941 39.089,5.461 37.239,5.461 L37.267,5.443 Z M37.903,10.608 C37.603,12.588 36.09,12.588 34.627,12.588 L33.795,12.588 L34.379,8.891 C34.409,8.671 34.599,8.511 34.829,8.511 L35.209,8.511 C36.199,8.511 37.139,8.511 37.629,9.081 C37.919,9.421 38.009,9.931 37.899,10.621 L37.903,10.608 Z M53.753,10.544 L51.113,10.544 C50.887,10.544 50.693,10.709 50.658,10.932 L50.541,11.672 L50.361,11.402 C49.791,10.572 48.521,10.296 47.241,10.296 C44.331,10.296 41.831,12.506 41.351,15.606 C41.101,17.154 41.461,18.633 42.341,19.666 C43.151,20.613 44.301,21.008 45.671,21.008 C48.021,21.008 49.331,19.496 49.331,19.496 L49.221,20.23 C49.181,20.51 49.391,20.762 49.671,20.762 L52.051,20.762 C52.431,20.762 52.751,20.488 52.811,20.115 L54.241,11.075 C54.291,10.797 54.071,10.545 53.791,10.545 L53.753,10.544 Z M50.073,15.684 C49.817,17.194 48.619,18.206 47.093,18.206 C46.325,18.206 45.713,17.96 45.319,17.494 C44.919,17.031 44.779,16.374 44.899,15.639 C45.139,14.139 46.349,13.089 47.859,13.089 C48.609,13.089 49.219,13.339 49.619,13.809 C50.019,14.279 50.179,14.939 50.069,15.679 L50.073,15.684 Z M67.82,10.544 L65.165,10.544 C64.912,10.544 64.675,10.67 64.531,10.881 L60.871,16.281 L59.321,11.101 C59.221,10.781 58.931,10.561 58.591,10.561 L55.981,10.561 C55.671,10.561 55.451,10.871 55.551,11.171 L58.481,19.751 L55.731,23.631 C55.521,23.941 55.731,24.361 56.111,24.361 L58.761,24.361 C59.011,24.361 59.251,24.241 59.391,24.031 L68.201,11.281 C68.411,10.981 68.191,10.561 67.821,10.561 L67.82,10.544 Z" id="Shape" fill="#253B80"/><path d="M76.606,5.443 L71.09,5.443 C70.714,5.443 70.393,5.717 70.334,6.09 L68.104,20.232 C68.059,20.512 68.274,20.762 68.556,20.762 L71.386,20.762 C71.65,20.762 71.876,20.572 71.916,20.31 L72.549,16.3 C72.599,15.927 72.929,15.653 73.299,15.653 L75.039,15.653 C78.669,15.653 80.769,13.895 81.319,10.411 C81.559,8.891 81.329,7.691 80.609,6.851 C79.819,5.931 78.429,5.451 76.589,5.451 L76.606,5.443 Z M77.243,10.608 C76.943,12.588 75.43,12.588 73.967,12.588 L73.135,12.588 L73.72,8.891 C73.755,8.671 73.947,8.511 74.173,8.511 L74.555,8.511 C75.55,8.511 76.49,8.511 76.975,9.081 C77.265,9.421 77.353,9.931 77.243,10.621 L77.243,10.608 Z M93.093,10.544 L90.453,10.544 C90.226,10.544 90.033,10.709 89.999,10.932 L89.879,11.672 L89.689,11.402 C89.119,10.572 87.839,10.296 86.569,10.296 C83.649,10.296 81.159,12.506 80.669,15.606 C80.419,17.154 80.769,18.633 81.649,19.666 C82.449,20.613 83.599,21.008 84.969,21.008 C87.319,21.008 88.629,19.496 88.629,19.496 L88.509,20.23 C88.459,20.51 88.679,20.762 88.959,20.762 L91.339,20.762 C91.709,20.762 92.029,20.488 92.089,20.115 L93.519,11.075 C93.559,10.797 93.339,10.545 93.059,10.545 L93.093,10.544 Z M89.41,15.684 C89.157,17.194 87.958,18.206 86.43,18.206 C85.665,18.206 85.05,17.96 84.657,17.494 C84.267,17.031 84.12,16.374 84.243,15.639 C84.483,14.139 85.698,13.089 87.203,13.089 C87.953,13.089 88.563,13.339 88.963,13.809 C89.368,14.279 89.527,14.939 89.41,15.679 L89.41,15.684 Z M96.206,5.83 L93.942,20.232 C93.898,20.512 94.114,20.762 94.395,20.762 L96.671,20.762 C97.051,20.762 97.371,20.489 97.431,20.115 L99.661,5.973 C99.711,5.693 99.491,5.443 99.211,5.443 L96.661,5.443 C96.441,5.443 96.241,5.607 96.211,5.831 L96.206,5.83 Z" id="Shape" fill="#179BD7"/><path d="M5.86,23.51 L6.28,20.832 L5.342,20.81 L0.856,20.81 L3.973,1.042 C3.983,0.982 4.015,0.927 4.06,0.887 C4.106,0.847 4.165,0.827 4.227,0.827 L11.791,0.827 C14.311,0.827 16.041,1.347 16.941,2.38 C17.371,2.864 17.641,3.37 17.771,3.926 C17.911,4.51 17.911,5.206 17.781,6.058 L17.771,6.12 L17.771,6.665 L18.201,6.905 C18.561,7.095 18.841,7.312 19.061,7.56 C19.421,7.974 19.661,8.5 19.761,9.123 C19.871,9.765 19.831,10.527 19.661,11.391 C19.471,12.391 19.161,13.251 18.731,13.961 C18.351,14.611 17.851,15.161 17.261,15.581 C16.701,15.981 16.031,16.281 15.281,16.481 C14.551,16.671 13.721,16.771 12.801,16.771 L12.211,16.771 C11.791,16.771 11.381,16.921 11.061,17.201 C10.741,17.481 10.531,17.861 10.461,18.271 L10.421,18.511 L9.681,23.231 L9.651,23.411 C9.641,23.471 9.631,23.501 9.611,23.511 C9.591,23.531 9.561,23.541 9.531,23.541 L5.86,23.541 L5.86,23.51 Z" id="Shape" fill="#253B80"/><path d="M18.587,6.183 C18.565,6.327 18.539,6.475 18.51,6.627 C17.512,11.747 14.1,13.517 9.74,13.517 L7.52,13.517 C6.988,13.517 6.54,13.905 6.456,14.431 L5.32,21.64 L4.998,23.683 C4.944,24.029 5.21,24.34 5.558,24.34 L9.494,24.34 C9.96,24.34 10.356,24.002 10.43,23.542 L10.47,23.342 L11.21,18.638 L11.257,18.38 C11.33,17.918 11.727,17.58 12.193,17.58 L12.781,17.58 C16.601,17.58 19.581,16.03 20.461,11.55 C20.831,9.68 20.641,8.116 19.671,7.017 C19.381,6.685 19.021,6.41 18.591,6.187 L18.587,6.183 Z" id="Shape" fill="#179BD7"/><path d="M17.544,5.767 C17.391,5.723 17.234,5.682 17.074,5.647 C16.91,5.61 16.744,5.579 16.574,5.552 C15.974,5.455 15.319,5.409 14.617,5.409 L8.687,5.409 C8.542,5.409 8.403,5.439 8.279,5.499 C7.999,5.629 7.799,5.889 7.749,6.199 L6.489,14.189 L6.449,14.419 C6.529,13.889 6.979,13.499 7.509,13.499 L9.729,13.499 C14.089,13.499 17.499,11.729 18.499,6.609 C18.529,6.459 18.549,6.309 18.569,6.159 C18.319,6.019 18.039,5.909 17.749,5.809 L17.529,5.739 L17.544,5.767 Z" id="Shape" fill="#222D65"/><path d="M7.753,6.21 C7.803,5.892 8.006,5.633 8.279,5.502 C8.399,5.442 8.539,5.41 8.679,5.41 L14.609,5.41 C15.309,5.41 15.959,5.456 16.559,5.552 C16.729,5.58 16.889,5.612 17.059,5.647 C17.219,5.683 17.379,5.723 17.529,5.767 L17.749,5.837 C18.039,5.935 18.309,6.05 18.569,6.183 C18.859,4.29 18.559,3.003 17.539,1.835 C16.43,0.55 14.4,0 11.79,0 L4.227,0 C3.697,0 3.241,0.387 3.161,0.914 L0.01,20.884 C-0.052,21.281 0.253,21.637 0.65,21.637 L5.32,21.637 L6.494,14.197 L7.75,6.21 L7.753,6.21 Z" id="Shape" fill="#253B80"/></g></g></g></svg>